<svg xmlns="http://www.w3.org/2000/svg" xmlns:xlink="http://www.w3.org/1999/xlink" viewBox="0 0 23 13.1422">
  <defs>
    <clipPath id="a" transform="translate(-0.5 -5.4289)">
      <rect width="24" height="24" fill="none"/>
    </clipPath>
  </defs>
  <title>watchflix</title>
  <g clip-path="url(#a)">
    <g>
      <path d="M10.45287,14.965,8.56258,18.239a.6641.6641,0,0,1-1.15019.00027L.59141,6.425a.66413.66413,0,0,1,.57514-.99612H4.947a.6487.6487,0,0,1,.57515.33186L10.45287,14.301a.6486.6486,0,0,1,0,.664" transform="translate(-0.5 -5.4289)" fill="#00b9ae" fill-rule="evenodd"/>
      <path d="M18.48448,14.965l-1.89029,3.274a.66411.66411,0,0,1-1.1502.00027L8.623,6.425a.66413.66413,0,0,1,.575-.99612h3.78059a.64854.64854,0,0,1,.575.33186L18.48448,14.301a.64864.64864,0,0,1,0,.664" transform="translate(-0.5 -5.4289)" fill="#00b9ae" fill-rule="evenodd"/>
      <path d="M19.45993,11.28356l-2.8043-4.857a.664.664,0,0,1,.5769-.99594c1.877.00526,3.72643.02039,5.59707.00923a.66382.66382,0,0,1,.579.99584l-2.79849,4.84784a.664.664,0,0,1-1.1502,0" transform="translate(-0.5 -5.4289)" fill="#008c8c" fill-rule="evenodd"/>
    </g>
  </g>
</svg>
